# xmcd CD database file
#
# Track frame offsets:
#	150
#	22565
#	86057
#	154292
#	222262
#	289727
#
# Disc length: 4246 seconds
#
# Revision: 0
# Processed by: cddbd v1.5.1PL2 Copyright (c) Steve Scherf et al.
# Submitted via: CDex 1.51
#
DISCID=48109406
DTITLE=岸尾大輔・他 - HAPPY★LESSON DORAMA CD ハチャメチャ☆ハッピークリスマス
DYEAR=2002
DGENRE=アニメ
TTITLE0=笹島かほる&こやまきみこ/オープニングトーク「かほる&きみきみドキドキHAPPY☆LESSON」
TTITLE1=第1回　ズキズキ☆ふみつき計画
TTITLE2=第2回　ハラハラ☆怪盗あらわる
TTITLE3=第3回　ハチャメチャ☆サンタがいっぱい
TTITLE4=エンドクレジット「どきどき声優トーク」
TTITLE5=ボーナストラック「きしお&だいすけHAPPY☆LESSON」
EXTD=YEAR: 2002/2/22
EXTT0=
EXTT1=
EXTT2=
EXTT3=
EXTT4=
EXTT5=
PLAYORDER=
